<svg width="257" height="257" viewBox="0 0 257 257" fill="none" xmlns="http://www.w3.org/2000/svg">
<circle cx="128.421" cy="128.579" r="125.128" fill="url(#paint0_linear_443_2)" stroke="white" stroke-width="6.58568"/>
<path fill-rule="evenodd" clip-rule="evenodd" d="M116.144 34.5887C106.641 37.1746 100.675 47.0216 103.014 56.2594C104.781 63.2324 109.777 68.2695 116.688 70.0434C125.987 72.4306 135.819 66.1664 138.322 56.2594C140.689 46.8883 134.474 36.8887 124.789 34.4887C121.785 33.7444 119.134 33.7749 116.144 34.5887ZM117.643 78.6171C113.628 79.4116 109.496 82.2384 107.329 85.6715C104.68 89.8704 104.831 87.9428 104.706 119.276C104.631 138.261 104.721 148.2 104.984 149.793C105.965 155.744 110.216 160.743 116.012 162.76C117.585 163.307 120.232 163.391 139.603 163.505L161.421 163.634L165.267 171.336C178.952 198.737 183.307 207.063 184.725 208.534C189.918 213.919 198.927 212.18 201.979 205.203C203.039 202.782 203.036 199.325 201.973 196.873C201.548 195.893 195.751 184.286 189.09 171.08C176.37 145.859 175.803 144.899 172.569 143.132C171.156 142.361 170.788 142.343 153.917 142.241L136.706 142.137V138.536V134.936L151.23 134.826C167.192 134.705 166.293 134.829 168.908 132.398C172.164 129.371 172.231 124.245 169.055 121.114C166.621 118.716 166.816 118.743 151.033 118.614L136.706 118.497V106.039C136.706 99.085 136.544 92.7176 136.338 91.6262C135.482 87.072 131.955 82.0295 128.333 80.1796C124.885 78.4184 121.296 77.8938 117.643 78.6171ZM91.2927 109.857C90.2024 110.242 87.364 111.537 84.9852 112.735C69.8159 120.372 58.9783 134.414 55.2471 151.264C53.9193 157.261 53.6868 166.53 54.7141 172.505C58.2617 193.142 72.5768 210.125 92.0135 216.755C118.326 225.731 146.391 214.524 159.751 189.707L161.156 187.097L158.037 180.797L154.918 174.496H151.816H148.715L148.26 176.04C147.597 178.29 145.266 183.041 143.491 185.758C139.718 191.536 132.57 197.536 126.067 200.387C114.52 205.449 100.618 204.583 89.847 198.133C80.4788 192.523 74.1245 184.001 71.1866 173.105C70.3234 169.903 70.2412 169.013 70.2578 163.053C70.2733 157.545 70.3973 156.064 71.0453 153.669C74.131 142.262 80.8799 133.409 90.7455 127.828L93.8156 126.091V117.597C93.8156 112.926 93.6938 109.116 93.5453 109.13C93.3968 109.145 92.383 109.472 91.2927 109.857Z" fill="white"/>
<defs>
<linearGradient id="paint0_linear_443_2" x1="128.421" y1="0.158447" x2="128.421" y2="257" gradientUnits="userSpaceOnUse">
<stop stop-color="#EA2B36"/>
<stop offset="1" stop-color="#E75D6D"/>
</linearGradient>
</defs>
</svg>
