<svg width="257" height="257" viewBox="0 0 257 257" fill="none" xmlns="http://www.w3.org/2000/svg">
<circle cx="128.421" cy="128.421" r="125.128" fill="url(#paint0_linear_449_63)" stroke="white" stroke-width="6.58568"/>
<path fill-rule="evenodd" clip-rule="evenodd" d="M127.482 29.0368C125.328 29.1757 122.146 29.969 120.186 30.855C117.699 31.9797 116.321 31.9817 113.79 30.8643C104.271 26.661 95.4419 33.2908 96.7381 43.6688C97.2782 47.9936 99.9401 51.76 103.589 53.3619C105.107 54.0279 105.147 54.0752 105.325 55.4067C105.425 56.1564 105.938 57.976 106.466 59.45C109.296 67.3595 115.047 72.5515 121.736 73.236C123.233 73.389 123.521 73.5003 123.4 73.8795C122.922 75.3856 122.111 79.8138 121.856 82.3167C120.68 93.8525 123.334 103.127 129.494 109.004C131.975 111.37 133.746 112.478 138.428 114.59C143.711 116.974 144.778 117.62 146.817 119.665C148.975 121.831 149.57 123.068 149.715 125.689C149.806 127.321 149.698 128.111 149.196 129.493C148.295 131.978 146.067 135.053 143.365 137.541L141.033 139.689L144.225 142.929C147.137 145.884 150.603 149.727 152.247 151.822C152.603 152.276 152.803 152.458 152.692 152.226C152.555 151.939 152.687 151.976 153.102 152.34C153.786 152.939 153.955 153.339 153.292 152.789C152.543 152.169 152.836 152.753 154.247 154.695C159.1 161.375 163.054 169.3 164.967 176.183C166.431 181.448 166.824 188.055 165.88 191.546C164.724 195.825 162.272 199.772 158.367 203.641C155.998 205.987 151.046 210.005 149.546 210.796C149.191 210.983 148.99 211.273 149.096 211.446C149.216 211.639 149.159 211.677 148.947 211.546C148.752 211.426 148.155 211.637 147.563 212.035C144.048 214.401 135.551 218.599 129.231 221.091C125.062 222.735 120.888 224.286 120.148 224.467C118.755 224.807 115.635 225.833 115.635 225.952C115.635 226.086 120.186 225.93 126.072 225.595C129.894 225.378 135.753 224.651 136.046 224.358C136.183 224.222 136.461 224.173 136.664 224.251C137.398 224.532 145.189 222.743 149.692 221.259C158.819 218.251 165.247 214.507 170.772 208.981C179.821 199.93 184.019 188.137 182.79 175.225C181.836 165.195 178.386 157.377 170.778 148C169.207 146.063 166.365 142.415 164.462 139.894L161.004 135.309L162.445 133.734C165.326 130.586 166.29 128.657 166.957 124.706C167.561 121.13 166.579 118.165 164.083 116.03C163.423 115.465 160.534 113.857 157.664 112.457C148.464 107.968 143.856 105.064 139.703 101.138C135.474 97.1397 133.705 94.3822 133.694 91.7697C133.682 89.0294 135.69 83.1106 137.241 81.3129L137.778 80.6914L142.432 81.6622C147.611 82.7424 149.858 82.8815 150.855 82.1834C151.697 81.5946 152.488 79.7301 152.901 77.3588C153.148 75.9406 153.425 75.2786 154.016 74.6878C154.639 74.0663 154.874 73.4595 155.146 71.7759C155.404 70.1773 155.409 69.5688 155.166 69.3262C154.303 68.4642 155.027 66.9521 156.925 65.6517C158.282 64.7223 157.963 63.8314 155.229 60.9063C152.071 57.5278 151.846 56.9939 152.314 53.9842C152.618 52.0302 152.612 51.5955 152.278 51.1833C151.959 50.7909 151.956 50.7407 152.265 50.9267C152.787 51.2402 152.473 48.9388 151.565 45.7928C150.929 43.5908 150.916 43.4079 151.345 42.5797C153.517 38.3848 143.936 30.9038 134.489 29.4185C132.399 29.09 129.285 28.9201 127.482 29.0368ZM123.215 30.7308C122.864 31.1776 122.874 31.1875 123.322 30.8373C123.792 30.4691 123.941 30.2378 123.709 30.2378C123.65 30.2378 123.428 30.4598 123.215 30.7308ZM120.958 32.9846C120.608 33.4314 120.618 33.4413 121.065 33.0911C121.535 32.7229 121.684 32.4916 121.452 32.4916C121.394 32.4916 121.171 32.7136 120.958 32.9846ZM118.702 35.2384C118.351 35.6852 118.361 35.6951 118.808 35.3449C119.278 34.9767 119.428 34.7454 119.195 34.7454C119.137 34.7454 118.915 34.9674 118.702 35.2384ZM116.445 37.4922C116.095 37.9391 116.105 37.9489 116.552 37.5987C117.022 37.2305 117.171 36.9992 116.939 36.9992C116.881 36.9992 116.658 37.2212 116.445 37.4922ZM114.189 39.7461C113.838 40.1929 113.848 40.2027 114.295 39.8525C114.765 39.4843 114.914 39.253 114.682 39.253C114.624 39.253 114.402 39.475 114.189 39.7461ZM111.932 41.9999C111.582 42.4467 111.591 42.4565 112.039 42.1064C112.509 41.7381 112.658 41.5068 112.426 41.5068C112.367 41.5068 112.145 41.7288 111.932 41.9999ZM109.676 44.2537C109.325 44.7005 109.335 44.7104 109.782 44.3602C110.252 43.992 110.401 43.7607 110.169 43.7607C110.111 43.7607 109.889 43.9827 109.676 44.2537ZM107.419 46.5075C107.068 46.9543 107.078 46.9642 107.526 46.614C107.996 46.2458 108.145 46.0145 107.913 46.0145C107.854 46.0145 107.632 46.2365 107.419 46.5075ZM105.162 48.7613C104.812 49.2081 104.822 49.218 105.269 48.8678C105.739 48.4996 105.888 48.2683 105.656 48.2683C105.598 48.2683 105.375 48.4903 105.162 48.7613ZM102.906 51.0151C102.555 51.4619 102.565 51.4718 103.012 51.1216C103.482 50.7534 103.632 50.5221 103.399 50.5221C103.341 50.5221 103.119 50.7441 102.906 51.0151ZM114.508 77.0718C111.108 83.6363 109.399 86.4223 104.96 92.6403C102.102 96.6425 97.9104 102.868 94.147 108.699C93.4469 109.783 91.4664 112.842 89.7461 115.495C84.2725 123.938 78.0982 133.974 76.856 136.449C76.1948 137.766 74.7983 140.84 73.7523 143.279C72.1386 147.044 71.8797 147.869 72.0416 148.731C72.2433 149.804 72.7798 150.419 84.4434 162.929C87.4035 166.104 92.1547 171.151 95.0014 174.145C101.061 180.519 100.772 179.607 98.4725 185.073C96.6582 189.387 95.7046 193.048 95.3635 197.01C94.8124 203.419 95.9759 209.603 98.7848 215.191C101.452 220.498 106.766 226.393 108.428 225.887C116.644 223.388 124.228 220.474 130.867 217.266C147.189 209.379 156.715 200.526 158.946 191.171C159.585 188.493 159.377 182.282 158.524 178.567C155.804 166.715 148.624 154.602 137.715 143.46L133.96 139.624L135.533 138.283C136.435 137.513 137.044 136.782 136.962 136.568C136.874 136.339 136.967 136.252 137.204 136.343C137.749 136.552 140.48 133.156 141.607 130.869C142.769 128.511 143.051 125.492 142.315 123.279C141.378 120.462 137.977 117.555 132.983 115.303C127.843 112.985 126.706 112.401 125.078 111.24C122.835 109.642 120.018 106.594 118.662 104.3C114.574 97.3826 113.483 87.4982 115.643 76.965C115.938 75.5293 116.14 74.3153 116.092 74.2677C116.044 74.2198 115.331 75.4817 114.508 77.0718ZM101.108 100.669C101.389 100.979 101.682 101.233 101.76 101.233C101.838 101.233 101.671 100.979 101.391 100.669C101.11 100.36 100.817 100.106 100.739 100.106C100.661 100.106 100.828 100.36 101.108 100.669ZM102.942 102.466C102.942 102.525 103.164 102.747 103.436 102.959C103.883 103.31 103.893 103.3 103.542 102.853C103.174 102.384 102.942 102.234 102.942 102.466ZM105.199 104.72C105.199 104.778 105.421 105 105.692 105.213C106.14 105.563 106.149 105.554 105.799 105.107C105.43 104.637 105.199 104.488 105.199 104.72ZM107.455 106.974C107.455 107.032 107.677 107.254 107.949 107.467C108.396 107.817 108.406 107.807 108.055 107.361C107.687 106.891 107.455 106.742 107.455 106.974ZM109.712 109.228C109.712 109.286 109.934 109.508 110.205 109.721C110.653 110.071 110.663 110.061 110.312 109.614C109.943 109.145 109.712 108.996 109.712 109.228ZM145.499 109.614C145.148 110.061 145.158 110.071 145.605 109.721C146.075 109.353 146.224 109.121 145.992 109.121C145.934 109.121 145.712 109.343 145.499 109.614ZM111.968 111.482C111.968 111.54 112.191 111.762 112.462 111.975C112.909 112.325 112.919 112.315 112.568 111.868C112.2 111.399 111.968 111.25 111.968 111.482ZM143.242 111.868C142.891 112.315 142.901 112.325 143.349 111.975C143.819 111.606 143.968 111.375 143.736 111.375C143.677 111.375 143.455 111.597 143.242 111.868ZM114.225 113.735C114.225 113.794 114.447 114.016 114.718 114.228C115.166 114.579 115.176 114.569 114.825 114.122C114.456 113.653 114.225 113.504 114.225 113.735ZM116.481 115.989C116.481 116.048 116.704 116.27 116.975 116.482C117.422 116.832 117.432 116.823 117.082 116.376C116.713 115.906 116.481 115.757 116.481 115.989ZM118.738 118.243C118.738 118.301 118.96 118.523 119.232 118.736C119.679 119.086 119.689 119.076 119.338 118.63C118.97 118.16 118.738 118.011 118.738 118.243ZM120.995 120.497C120.995 120.555 121.217 120.777 121.488 120.99C121.936 121.34 121.945 121.33 121.595 120.883C121.226 120.414 120.995 120.265 120.995 120.497ZM134.216 120.883C133.865 121.33 133.875 121.34 134.322 120.99C134.792 120.622 134.942 120.39 134.709 120.39C134.651 120.39 134.429 120.612 134.216 120.883ZM123.251 122.751C123.251 122.809 123.473 123.031 123.745 123.244C124.192 123.594 124.202 123.584 123.851 123.137C123.483 122.668 123.251 122.519 123.251 122.751ZM131.959 123.137C131.609 123.584 131.618 123.594 132.066 123.244C132.536 122.875 132.685 122.644 132.453 122.644C132.394 122.644 132.172 122.866 131.959 123.137ZM125.508 125.004C125.508 125.063 125.73 125.285 126.001 125.498C126.449 125.848 126.459 125.838 126.108 125.391C125.739 124.922 125.508 124.773 125.508 125.004ZM129.703 125.391C129.352 125.838 129.362 125.848 129.809 125.498C130.279 125.129 130.428 124.898 130.196 124.898C130.138 124.898 129.916 125.12 129.703 125.391ZM125.189 129.899C124.839 130.345 124.849 130.355 125.296 130.005C125.766 129.637 125.915 129.406 125.683 129.406C125.625 129.406 125.402 129.628 125.189 129.899ZM130.021 129.512C130.021 129.57 130.243 129.792 130.514 130.005C130.962 130.355 130.972 130.345 130.621 129.899C130.252 129.429 130.021 129.28 130.021 129.512ZM94.1977 138.183C91.1725 141.738 88.5247 144.891 88.3137 145.191C87.9634 145.688 88.281 146.17 91.9807 150.747C107.067 169.414 107.025 169.365 107.211 168.743C107.479 167.849 107.212 162.635 106.726 159.269C106.165 155.379 105.259 151.56 102.947 143.351C101.9 139.632 100.813 135.575 100.533 134.336C100.252 133.096 99.9492 132.001 99.86 131.901C99.7712 131.801 97.2229 134.628 94.1977 138.183ZM122.933 132.152C122.582 132.599 122.592 132.609 123.04 132.259C123.509 131.891 123.659 131.659 123.427 131.659C123.368 131.659 123.146 131.881 122.933 132.152ZM132.277 131.766C132.277 131.824 132.5 132.046 132.771 132.259C133.218 132.609 133.228 132.599 132.878 132.152C132.509 131.683 132.277 131.534 132.277 131.766ZM120.676 134.406C120.326 134.853 120.336 134.863 120.783 134.513C121.253 134.145 121.402 133.913 121.17 133.913C121.112 133.913 120.889 134.135 120.676 134.406ZM134.534 134.02C134.534 134.078 134.756 134.3 135.028 134.513C135.475 134.863 135.485 134.853 135.134 134.406C134.766 133.937 134.534 133.788 134.534 134.02ZM118.42 136.66C118.069 137.107 118.079 137.117 118.526 136.767C118.996 136.398 119.146 136.167 118.913 136.167C118.855 136.167 118.633 136.389 118.42 136.66ZM116.163 138.914C115.813 139.361 115.822 139.371 116.27 139.02C116.74 138.652 116.889 138.421 116.657 138.421C116.598 138.421 116.376 138.643 116.163 138.914ZM113.907 141.168C113.556 141.615 113.566 141.624 114.013 141.274C114.483 140.906 114.632 140.675 114.4 140.675C114.342 140.675 114.12 140.897 113.907 141.168ZM111.65 143.422C111.299 143.868 111.309 143.878 111.757 143.528C112.227 143.16 112.376 142.929 112.144 142.929C112.085 142.929 111.863 143.151 111.65 143.422ZM109.393 145.675C109.043 146.122 109.053 146.132 109.5 145.782C109.97 145.414 110.119 145.182 109.887 145.182C109.829 145.182 109.606 145.404 109.393 145.675ZM107.137 147.929C106.786 148.376 106.796 148.386 107.244 148.036C107.713 147.667 107.863 147.436 107.631 147.436C107.572 147.436 107.35 147.658 107.137 147.929ZM135.052 160.165C133.699 160.525 131.845 162.133 131.097 163.595C130.304 165.147 130.118 167.95 130.669 170.045C131.503 173.213 133.115 175.139 135.682 176.033C138.627 177.06 138.112 179.28 135.154 178.308C134.425 178.068 132.911 177.789 131.79 177.687C129.671 177.494 129.173 177.657 128.597 178.733C128.24 179.399 129.66 180.26 131.566 180.533C135.143 181.045 137.4 183.635 137.092 186.878C137.07 187.11 136.63 186.413 136.114 185.328C134.904 182.787 133.847 181.787 132.167 181.598C131.075 181.475 130.514 181.63 128.382 182.642C126.103 183.723 125.784 183.804 124.826 183.54C123.579 183.196 123.055 183.346 122.81 184.117C122.576 184.852 122.921 187.617 123.385 188.732C123.852 189.854 125.095 190.822 126.068 190.822C126.779 190.822 128.88 189.554 129.304 188.869C129.744 188.158 129.88 188.733 129.884 191.315C129.888 193.757 129.974 194.225 130.659 195.531C132.441 198.925 134.728 200.438 138.364 200.629C144.861 200.969 150.671 196.261 151.789 189.751C152.477 185.748 151.3 182.505 146.886 176.232C144.432 172.746 144.369 172.617 144.524 171.383C145.029 167.362 145.03 166.918 144.536 165.433C143.858 163.392 141.715 161.259 139.521 160.439C137.788 159.791 136.707 159.725 135.052 160.165ZM100.403 204.733C100.403 204.792 100.626 205.014 100.897 205.226C101.344 205.576 101.354 205.567 101.004 205.12C100.635 204.65 100.403 204.501 100.403 204.733ZM102.66 206.987C102.66 207.045 102.882 207.267 103.154 207.48C103.601 207.83 103.611 207.82 103.26 207.374C102.891 206.904 102.66 206.755 102.66 206.987ZM104.916 209.241C104.916 209.299 105.139 209.521 105.41 209.734C105.857 210.084 105.867 210.074 105.517 209.627C105.148 209.158 104.916 209.009 104.916 209.241ZM107.173 211.495C107.173 211.553 107.395 211.775 107.667 211.988C108.114 212.338 108.124 212.328 107.773 211.881C107.405 211.412 107.173 211.263 107.173 211.495ZM109.43 213.748C109.43 213.807 109.652 214.029 109.923 214.241C110.371 214.592 110.38 214.582 110.03 214.135C109.661 213.666 109.43 213.517 109.43 213.748ZM111.686 216.002C111.686 216.061 111.908 216.283 112.18 216.495C112.627 216.845 112.637 216.836 112.286 216.389C111.918 215.919 111.686 215.77 111.686 216.002ZM144.088 216.389C143.738 216.836 143.748 216.845 144.195 216.495C144.665 216.127 144.814 215.896 144.582 215.896C144.524 215.896 144.301 216.118 144.088 216.389ZM113.943 218.256C113.943 218.314 114.165 218.536 114.436 218.749C114.884 219.099 114.894 219.089 114.543 218.643C114.174 218.173 113.943 218.024 113.943 218.256ZM141.832 218.643C141.481 219.089 141.491 219.099 141.938 218.749C142.408 218.381 142.557 218.15 142.325 218.15C142.267 218.15 142.045 218.372 141.832 218.643ZM116.199 220.51C116.199 220.568 116.422 220.79 116.693 221.003C117.14 221.353 117.15 221.343 116.8 220.896C116.431 220.427 116.199 220.278 116.199 220.51ZM139.575 220.896C139.225 221.343 139.234 221.353 139.682 221.003C140.152 220.635 140.301 220.403 140.069 220.403C140.01 220.403 139.788 220.625 139.575 220.896ZM137.319 223.15C136.968 223.597 136.978 223.607 137.425 223.257C137.895 222.889 138.044 222.657 137.812 222.657C137.754 222.657 137.532 222.879 137.319 223.15Z" fill="white"/>
<defs>
<linearGradient id="paint0_linear_449_63" x1="128.421" y1="0" x2="128.421" y2="256.842" gradientUnits="userSpaceOnUse">
<stop stop-color="#EA2B36"/>
<stop offset="1" stop-color="#E75D6D"/>
</linearGradient>
</defs>
</svg>
