<svg width="258" height="257" viewBox="0 0 258 257" fill="none" xmlns="http://www.w3.org/2000/svg">
<circle cx="128.971" cy="128.421" r="125.128" fill="url(#paint0_linear_443_30)" stroke="white" stroke-width="6.58568"/>
<path fill-rule="evenodd" clip-rule="evenodd" d="M104.168 28.3378C100.27 29.311 95.6641 32.5311 93.2956 35.9391C90.7151 39.653 89.8877 42.6717 90.0649 47.7258C90.1985 51.5263 90.3946 52.4477 91.6174 55.0165C94.9495 62.0162 101.605 66.1955 109.441 66.2094C118.039 66.2246 125.931 60.2391 128.088 52.0683C130.471 43.0375 126.261 33.8932 117.825 29.7787C114.744 28.2756 114.217 28.1599 110.071 28.0707C107.625 28.0181 104.968 28.1382 104.168 28.3378ZM125.806 63.7772C119.868 65.6835 114.755 71.1879 113.354 77.1813C112.708 79.9446 112.805 83.5841 113.595 86.2556C114.403 88.9885 116.24 92.3165 116.941 92.3165C118.331 92.3165 121.488 87.2831 122.843 82.9046C125.027 75.8519 129.361 72.3051 135.795 72.3051C142.183 72.3051 147.361 76.5744 148.522 82.7989C149.215 86.5153 147.226 95.4883 144.532 100.8C141.712 106.358 136.429 112.294 132.235 114.615L130.472 115.591L130.831 119.941C131.358 126.33 131.217 143.076 130.586 149.088C129.098 163.259 126.897 174.716 122.814 189.546C121.233 195.288 119.824 200.68 119.682 201.527C119.099 205.02 121.482 209.119 125.015 210.703C130.219 213.037 136.089 210.161 137.727 204.476C140.076 196.323 143.948 179.914 147.358 163.661C147.834 161.39 148.602 159.756 148.602 161.013C148.602 163.25 155.361 205.105 155.927 206.371C158.084 211.202 163.936 212.932 168.802 210.178C170.697 209.106 171.355 208.414 172.214 206.593C173.506 203.856 173.52 203.146 172.425 196.026C170.718 184.929 170.554 181.623 170.209 151.263C169.847 119.512 169.608 115.132 167.727 105.802C164.332 88.9558 157.423 77.6189 144.855 68.2732C139.461 64.2618 137.356 63.4426 132.072 63.2999C129.22 63.2225 127.007 63.3913 125.806 63.7772ZM133.772 76.1907C130.243 77.0456 127.679 79.8328 126.554 84.037C125.659 87.3845 123.053 91.9206 120.681 94.2589C117.642 97.2532 114.291 98.8184 109.712 99.3822C105.471 99.9043 103.236 100.88 101.736 102.862C100.239 104.84 99.645 106.949 99.7359 109.963C99.8033 112.191 93.4605 149.838 86.2127 190.231C84.3357 200.691 84.2797 202.486 85.789 203.866C87.8811 205.779 91.7946 205.616 92.5705 203.583C92.7777 203.041 93.4671 199.562 94.1032 195.854C94.7388 192.145 95.8422 185.783 96.555 181.715C99.1998 166.624 106.769 123.154 107.472 119.023L107.702 117.671L111.291 117.416C125.721 116.393 140.356 104.208 144.05 90.1413C145.201 85.7605 145.075 82.9111 143.624 80.4675C141.669 77.1765 137.385 75.3163 133.772 76.1907Z" fill="white"/>
<defs>
<linearGradient id="paint0_linear_443_30" x1="128.971" y1="0" x2="128.971" y2="256.842" gradientUnits="userSpaceOnUse">
<stop stop-color="#EA2B36"/>
<stop offset="1" stop-color="#E75D6D"/>
</linearGradient>
</defs>
</svg>
