<svg width="258" height="257" viewBox="0 0 258 257" fill="none" xmlns="http://www.w3.org/2000/svg">
<circle cx="129.246" cy="128.579" r="125.128" fill="url(#paint0_linear_443_31)" stroke="white" stroke-width="6.58568"/>
<g clip-path="url(#clip0_443_31)">
<path fill-rule="evenodd" clip-rule="evenodd" d="M121.611 30.7667C113.687 32.844 107.375 40.35 105.915 49.4296C105.38 52.7582 105.692 58.2444 106.587 61.247C109.019 69.4092 114.56 75.1828 121.718 77.0134C131.309 79.4662 141.217 73.5502 145.033 63.0913C150.043 49.3648 142.875 33.6241 130.26 30.651C127.844 30.0815 124.029 30.1327 121.611 30.7667ZM124.634 66.697C122.683 67.3392 121.045 68.5254 122.127 68.5126C122.315 68.5104 123.023 68.3157 123.7 68.0796C125.173 67.5657 128.701 67.5225 131.075 67.9896C131.992 68.1702 132.808 68.2522 132.888 68.1721C132.968 68.0922 132.355 67.6951 131.527 67.2894C129.699 66.3953 126.41 66.1128 124.634 66.697ZM113.306 84.5692C112.332 84.7322 109.459 85.7023 108.691 86.1279C108.056 86.4791 108.068 86.492 109.192 86.6717C113.665 87.3869 119.943 93.9873 124.39 102.649C125.843 105.48 126.749 106.24 129.535 106.968C131.969 107.603 142.479 108.206 142.253 107.697C142.203 107.584 141.025 105.215 139.634 102.432C135.941 95.0376 134.964 90.8901 136.248 88.0617C136.719 87.0259 138.006 85.6848 138.801 85.4015C139.385 85.1931 138.917 84.9464 137.385 84.6559C136.006 84.3941 114.809 84.3178 113.306 84.5692ZM139.903 87.7515C137.48 89.0972 137.898 92.9548 141.223 99.942C142.702 103.049 145.263 107.667 145.655 107.933C145.791 108.026 146.853 108.166 148.015 108.246C151.689 108.498 156.008 110.785 157.214 113.117C158.104 114.838 157.416 117.057 155.624 118.242L154.539 118.961L155.427 119.702C155.917 120.111 157.07 120.846 157.991 121.338C159.395 122.086 160.033 122.25 161.931 122.349L164.196 122.468L167.572 120.792C171.42 118.883 174.82 117.714 180.796 116.246C183.09 115.683 184.967 115.127 184.967 115.012C184.967 114.896 184.505 114.718 183.941 114.616C181.959 114.257 178.979 112.537 176.804 110.497L174.71 108.531L169.923 108.358C160.718 108.023 157.805 106.821 155.708 102.491C153.033 96.9689 148.206 90.8277 144.702 88.4875C143.36 87.5918 142.823 87.391 141.789 87.3987C141.091 87.4041 140.243 87.5628 139.903 87.7515ZM106.848 89.5717C104.028 90.7112 104.655 95.4889 108.66 103.373C114.366 114.608 120.773 122.113 126.195 123.914C126.946 124.164 128.294 124.368 129.19 124.368C130.629 124.368 131.256 124.16 134.576 122.583C139.071 120.447 140.347 120.005 147.015 118.281C154.215 116.42 155.435 115.794 154.856 114.261C154.577 113.522 152.573 112.205 150.612 111.471C148.935 110.843 147.357 110.699 138.606 110.371C126.989 109.935 124.687 109.038 122.14 103.959C119.452 98.599 114.564 92.4718 111.281 90.3485C109.62 89.2742 108.2 89.0253 106.848 89.5717ZM100.94 94.2269C99.5493 97.0876 98.81 99.9094 98.81 102.36C98.81 103.239 99.7331 112.486 100.861 122.909C101.99 133.333 102.913 142.036 102.913 142.25C102.913 142.583 106.059 142.639 124.772 142.639H146.631L146.78 141.887C147.201 139.749 149.466 120.723 149.317 120.574C149.088 120.345 143.974 121.678 140.521 122.866C139.016 123.384 136.792 124.341 135.578 124.993C132.923 126.418 130.915 127.05 129.052 127.045C121.789 127.028 113.784 119.123 106.436 104.711C104.135 100.199 102.756 96.3376 102.419 93.4638L102.204 91.6286L100.94 94.2269ZM181.137 96.6686C177.416 97.0088 176.017 97.255 175.483 97.6633C175.053 97.9921 175.04 98.0826 175.387 98.3099C176.484 99.0298 179.87 99.2869 188.249 99.2869C196.989 99.2869 200.157 99.0211 201.285 98.1926C201.757 97.8458 201.74 97.8053 201.002 97.5239C200.571 97.3589 199.401 97.0994 198.404 96.947C196.045 96.5868 184.132 96.3948 181.137 96.6686ZM175.12 102.623C175.12 103.995 175.255 104.417 176.088 105.654C179.142 110.189 183.46 112.552 188.692 112.552C193.45 112.552 197.102 110.456 200.322 105.877C201.518 104.177 201.651 103.838 201.651 102.497C201.651 101.088 201.617 101.014 201.036 101.154C196.416 102.274 179.238 102.287 175.599 101.174C175.181 101.046 175.12 101.231 175.12 102.623ZM114.537 147.03C111.227 147.134 107.755 147.235 106.82 147.254L105.121 147.288L103.978 148.972C101.875 152.068 97.9036 161.535 98.4697 162.101C98.5947 162.226 100.099 162.933 101.812 163.673L104.928 165.018L103.988 165.414C98.2542 167.837 96.8297 168.508 96.6323 168.876C96.2406 169.609 95.2776 175.92 94.8555 180.52C94.2117 187.541 93.8424 198.79 94.1567 201.82C94.9135 209.119 97.2359 215.163 100.588 218.556C102.997 220.994 104.311 221.547 107.699 221.547C110.089 221.547 110.63 221.455 111.986 220.82C115.135 219.344 117.14 216.679 118.269 212.47C119.023 209.662 119.076 203.86 118.383 200.077C117.744 196.586 117.506 188.091 117.948 184.569C118.7 178.577 120.404 173.981 122.879 171.273C126.055 167.799 128.367 168.408 129.945 173.135C131.113 176.639 131.761 181.084 132.721 192.193C133.401 200.075 134.473 208.467 135.18 211.454C136.503 217.044 139.088 220.188 143.245 221.263C145.57 221.864 148.356 221.814 149.66 221.149C153.294 219.295 155.096 213.292 156.34 198.896C156.673 195.045 156.665 194.83 156.188 194.575C155.912 194.427 154.243 193.689 152.48 192.935C150.716 192.181 149.189 191.479 149.087 191.376C148.985 191.272 150.738 190.397 152.984 189.431L157.068 187.674L157.066 183.96C157.063 179.534 156.758 176.551 155.82 171.768C153.754 161.237 150.393 150.354 148.489 148.026C147.981 147.406 147.53 147.212 146.106 147.006C144.145 146.723 123.829 146.738 114.537 147.03ZM17.5766 221.436C17.5766 221.572 17.0842 221.684 16.4825 221.684C14.9782 221.684 15.0195 222.407 16.5802 223.394C17.235 223.807 17.8501 224.146 17.9472 224.146C18.0443 224.146 18.1236 223.776 18.1236 223.325C18.1236 222.778 18.2604 222.505 18.5339 222.505C19.1859 222.505 19.0057 221.851 18.2582 221.505C17.8832 221.331 17.5766 221.3 17.5766 221.436ZM16.756 222.778C17.2864 223.121 17.5766 223.121 17.5766 222.778C17.5766 222.628 17.2998 222.507 16.9612 222.509C16.4636 222.512 16.4243 222.564 16.756 222.778ZM15.3885 225.376C15.3885 226.053 15.5115 226.607 15.662 226.607C15.8124 226.607 15.9355 226.238 15.9355 225.787C15.9355 225.335 16.0011 224.966 16.0813 224.966C16.1617 224.966 16.8386 225.276 17.5856 225.655C18.7111 226.225 18.9441 226.269 18.9441 225.913C18.9441 225.527 16.3731 224.146 15.654 224.146C15.508 224.146 15.3885 224.7 15.3885 225.376ZM15.7167 227.209C15.2356 227.69 15.2963 229.069 15.7987 229.069C16.0539 229.069 16.209 228.811 16.209 228.385C16.209 227.444 16.9056 227.504 17.7989 228.522C18.195 228.973 18.6146 229.342 18.7316 229.342C18.8484 229.342 18.9441 228.789 18.9441 228.112C18.9441 227.435 18.8211 226.881 18.6706 226.881C18.5202 226.881 18.3971 227.136 18.3971 227.448V228.015L17.6764 227.448C16.8624 226.807 16.1992 226.727 15.7167 227.209ZM15.3885 230.544C15.3885 231.492 15.7323 231.804 16.7785 231.804C17.1597 231.804 17.3031 231.612 17.3031 231.1C17.3031 230.574 17.424 230.421 17.7817 230.496C18.0902 230.56 18.2371 230.811 18.1953 231.2C18.154 231.582 18.2798 231.804 18.5371 231.804C19.0363 231.804 19.0948 230.423 18.6159 229.944C18.0358 229.364 17.0394 229.554 16.756 230.3C16.613 230.676 16.3698 230.983 16.2158 230.983C16.0616 230.983 15.9355 230.676 15.9355 230.3C15.9355 229.924 15.8124 229.616 15.662 229.616C15.5115 229.616 15.3885 230.034 15.3885 230.544ZM15.7167 232.679C15.2356 233.16 15.2963 234.539 15.7987 234.539C16.0539 234.539 16.209 234.281 16.209 233.855C16.209 232.914 16.9056 232.974 17.7989 233.992C18.195 234.443 18.6146 234.813 18.7316 234.813C18.8484 234.813 18.9441 234.259 18.9441 233.582C18.9441 232.905 18.8211 232.351 18.6706 232.351C18.5202 232.351 18.3971 232.606 18.3971 232.918V233.485L17.6764 232.918C16.8624 232.277 16.1992 232.197 15.7167 232.679ZM17.5766 235.112C17.5766 235.248 17.0842 235.36 16.4825 235.36C14.9782 235.36 15.0195 236.083 16.5802 237.069C17.235 237.483 17.8501 237.821 17.9472 237.821C18.0443 237.821 18.1236 237.452 18.1236 237.001C18.1236 236.454 18.2604 236.18 18.5339 236.18C19.1859 236.18 19.0057 235.527 18.2582 235.18C17.8832 235.006 17.5766 234.976 17.5766 235.112ZM16.756 236.454C17.2864 236.796 17.5766 236.796 17.5766 236.454C17.5766 236.303 17.2998 236.182 16.9612 236.184C16.4636 236.188 16.4243 236.239 16.756 236.454ZM16.9059 238.437C16.5558 239.56 16.5183 239.596 16.3324 238.984C16.1308 238.321 15.3885 238.128 15.3885 238.739C15.3885 238.942 15.6904 239.435 16.0591 239.833C16.7785 240.609 18.0402 240.804 18.6159 240.228C19.038 239.806 19.038 238.845 18.6159 238.423C18.1849 237.992 17.0416 238.001 16.9059 238.437ZM17.3031 239.326C17.3031 239.607 17.4822 239.741 17.7817 239.684C18.3583 239.573 18.3219 239.087 17.7278 238.964C17.48 238.912 17.3031 239.063 17.3031 239.326ZM15.3926 241.719C15.395 241.907 15.5274 242.245 15.6869 242.471C15.9054 242.78 16.0115 242.797 16.1157 242.539C16.2005 242.331 16.7798 242.198 17.5993 242.198C18.6124 242.198 18.9441 242.096 18.9441 241.787C18.9441 241.465 18.5642 241.377 17.1663 241.377C15.924 241.377 15.3898 241.48 15.3926 241.719ZM18.3971 243.432V244.152L17.6764 243.585C16.4311 242.605 15.3885 242.995 15.3885 244.44C15.3885 244.949 15.5307 245.206 15.8108 245.206C16.043 245.206 16.2131 245.052 16.1885 244.864C16.0219 243.58 16.7683 243.485 17.7989 244.659C18.195 245.11 18.6146 245.48 18.7316 245.48C19.0462 245.48 18.9898 243.079 18.6706 242.881C18.5147 242.785 18.3971 243.022 18.3971 243.432ZM15.8671 245.668C15.2823 245.821 15.2306 246.3 15.7987 246.3C16.0244 246.3 16.209 246.419 16.209 246.565C16.209 246.711 16.0244 246.759 15.7987 246.673C15.1918 246.44 15.3009 246.825 16.003 247.394C16.4409 247.748 16.6737 247.801 16.8129 247.576C16.9472 247.359 17.1365 247.43 17.4204 247.806C17.6863 248.158 17.8359 248.22 17.8413 247.98C17.8465 247.764 18.0213 247.675 18.2604 247.767C18.8312 247.986 18.7762 247.483 18.192 247.143C17.736 246.877 17.736 246.863 18.192 246.855C18.4551 246.851 18.6706 246.724 18.6706 246.574C18.6706 246.423 18.486 246.3 18.2604 246.3C18.0347 246.3 17.8501 246.169 17.8501 246.008C17.8501 245.841 17.6168 245.79 17.3031 245.89C16.9893 245.99 16.756 245.939 16.756 245.772C16.756 245.469 16.6688 245.459 15.8671 245.668ZM108.917 245.839C107.189 246.323 105.849 247.21 105.017 248.419C104.002 249.895 103.733 250.772 103.733 252.618C103.733 255.399 104.918 257.428 107.298 258.723C110.84 260.651 115.517 259.11 117.171 255.469C117.793 254.099 117.84 251.309 117.264 249.93C115.905 246.679 112.272 244.898 108.917 245.839ZM124.638 245.961C121.509 247.078 119.87 249.357 119.87 252.591C119.87 255.41 121.046 257.423 123.462 258.739C126.854 260.588 131.416 259.199 133.185 255.778C133.763 254.66 133.979 251.576 133.566 250.326C132.386 246.753 128.182 244.697 124.638 245.961ZM166.486 245.961C163.357 247.078 161.718 249.357 161.718 252.591C161.718 255.408 162.892 257.42 165.309 258.742C166.554 259.423 167.073 259.543 168.71 259.532C170.298 259.52 170.897 259.38 172.066 258.744C174.148 257.61 174.278 257.367 173.316 256.405L172.513 255.601L171.497 256.324C168.349 258.564 164.311 256.475 164.335 252.618C164.353 249.679 165.901 248.078 168.726 248.078C170.11 248.078 170.583 248.207 171.448 248.823L172.494 249.568L173.235 248.686C173.91 247.884 173.939 247.762 173.555 247.333C172.213 245.831 168.739 245.157 166.486 245.961ZM181.06 245.765C177.717 246.595 175.685 249.146 175.673 252.531C175.663 255.405 176.822 257.411 179.258 258.739C182.919 260.734 187.602 259.069 189.22 255.198C189.738 253.958 189.727 251.196 189.198 249.93C187.882 246.781 184.318 244.957 181.06 245.765ZM91.4251 252.591V259.429H92.6559H93.8867V257.241V255.053H95.9884C99.7432 255.053 101.576 253.625 101.765 250.551C101.85 249.161 101.764 248.747 101.219 247.945C100.863 247.421 100.083 246.716 99.4856 246.377C98.5181 245.829 98.0193 245.762 94.9124 245.758L91.4251 245.753V252.591ZM136.828 252.591V259.429H137.922H139.016V256.967V254.506H140.485H141.955L143.562 256.963L145.17 259.42L146.606 259.424C147.396 259.427 148.042 259.359 148.042 259.273C148.042 259.188 147.296 258.067 146.383 256.784C145.471 255.5 144.763 254.422 144.811 254.389C144.858 254.355 145.346 254.058 145.894 253.728C147.095 253.007 147.769 251.696 147.769 250.084C147.769 248.436 146.994 247.125 145.577 246.375C144.517 245.815 144.026 245.753 140.615 245.753H136.828V252.591ZM156.521 252.591V259.429H157.615H158.709V252.591V245.753H157.615H156.521V252.591ZM192.351 252.591V259.429H193.576H194.8L194.875 254.741L194.95 250.053L198.493 254.741C201.987 259.363 202.051 259.429 203.074 259.429H204.113V252.591V245.753H203.025H201.938L201.863 250.312L201.788 254.87L198.254 250.312L194.721 245.753H193.536H192.351V252.591ZM93.8867 250.403V252.865L95.4594 252.864C97.4725 252.863 98.8516 252.202 99.1655 251.087C99.7096 249.152 98.2597 247.941 95.3998 247.941H93.8867V250.403ZM108.77 248.33C107.105 249.055 105.97 251.405 106.328 253.387C106.774 255.855 108.759 257.406 111.177 257.173C113.612 256.939 115.075 255.21 115.075 252.566C115.075 249.138 111.866 246.982 108.77 248.33ZM124.907 248.33C123.242 249.055 122.107 251.405 122.465 253.387C122.911 255.855 124.897 257.406 127.314 257.173C129.749 256.939 131.212 255.21 131.212 252.566C131.212 249.138 128.004 246.982 124.907 248.33ZM139.016 250.266V252.658L141.487 252.54C144.384 252.401 145.143 251.929 145.143 250.266C145.143 248.603 144.384 248.131 141.487 247.992L139.016 247.874V250.266ZM180.704 248.33C179.039 249.055 177.904 251.405 178.262 253.387C178.708 255.855 180.693 257.406 183.111 257.173C185.546 256.939 187.009 255.21 187.009 252.566C187.009 249.138 183.8 246.982 180.704 248.33ZM14.7504 250.038C14.249 250.539 14.7974 250.676 17.3031 250.676C19.5519 250.676 20.0382 250.603 20.0382 250.266C20.0382 249.931 19.5721 249.856 17.4855 249.856C16.0813 249.856 14.8505 249.938 14.7504 250.038ZM16.209 252.59C16.209 252.793 16.4128 253.183 16.6617 253.458C17.0933 253.935 17.0615 253.959 15.9779 253.959C15.15 253.959 14.8414 254.07 14.8414 254.369C14.8414 254.697 15.2517 254.779 16.8928 254.779C18.5339 254.779 18.9441 254.697 18.9441 254.369C18.9441 254.143 18.7404 253.959 18.4915 253.959C18.0703 253.959 18.0703 253.924 18.4915 253.458C18.9753 252.924 19.0929 252.318 18.713 252.318C18.5858 252.318 18.2573 252.566 17.983 252.869L17.4841 253.42L16.8466 252.821C16.4267 252.427 16.209 252.348 16.209 252.59ZM16.2593 256.047C16.3832 257.08 17.2462 257.592 18.1261 257.156C18.9406 256.752 19.2598 255.326 18.5358 255.326C18.2913 255.326 18.1561 255.431 18.2355 255.559C18.3148 255.688 18.2122 256.021 18.0076 256.301C17.692 256.733 17.5692 256.755 17.1958 256.445C16.9541 256.244 16.756 255.91 16.756 255.703C16.756 255.496 16.6247 255.326 16.4645 255.326C16.3039 255.326 16.2117 255.651 16.2593 256.047ZM16.5372 258.116C15.9858 258.667 16.16 259.658 16.8928 260.138C17.5262 260.553 17.6269 260.553 18.2604 260.138C19.4715 259.344 19.0185 257.788 17.5766 257.788C17.1854 257.788 16.7177 257.935 16.5372 258.116ZM16.9119 258.851C16.8296 258.984 16.9453 259.245 17.1693 259.431C17.4926 259.7 17.6605 259.7 17.9838 259.431C18.4794 259.02 18.2759 258.608 17.5766 258.608C17.2935 258.608 16.9943 258.717 16.9119 258.851ZM16.209 260.796C16.209 260.947 16.0244 261.07 15.7987 261.07C15.5731 261.07 15.3885 261.189 15.3885 261.334C15.3885 261.835 16.3496 262.094 17.5766 261.924C18.5817 261.785 18.8235 261.641 18.8949 261.138C18.9428 260.8 18.8506 260.523 18.6898 260.523C18.5287 260.523 18.3971 260.646 18.3971 260.796C18.3971 260.947 18.0279 261.07 17.5766 261.07C17.1253 261.07 16.756 260.947 16.756 260.796C16.756 260.646 16.633 260.523 16.4825 260.523C16.3321 260.523 16.209 260.646 16.209 260.796ZM15.115 263.099C15.115 264.214 15.4057 264.626 16.1942 264.626C16.7322 264.626 17.0317 264.428 17.2631 263.92C17.6354 263.103 18.2604 263.171 18.2604 264.029C18.2604 264.758 18.7653 264.943 18.8963 264.262C19.2562 262.393 17.596 261.686 16.6691 263.314C16.3072 263.95 16.1116 264.09 15.9505 263.829C15.8285 263.632 15.7897 263.238 15.8641 262.954C15.9555 262.605 15.8559 262.438 15.5572 262.438C15.2717 262.438 15.115 262.672 15.115 263.099ZM16.6455 266.624C15.462 267.489 17.0295 269.429 18.2579 268.619C18.966 268.151 19.1794 266.54 18.5328 266.54C18.2336 266.54 18.1359 266.698 18.2357 267.019C18.3175 267.282 18.2664 267.682 18.1214 267.908C17.9267 268.212 17.8575 268.052 17.8542 267.292C17.8498 266.193 17.4997 265.999 16.6455 266.624ZM16.9155 267.324C16.7976 267.515 16.7752 267.744 16.8654 267.835C17.1102 268.08 17.3772 267.72 17.2448 267.323C17.1524 267.045 17.0878 267.045 16.9155 267.324ZM16.5372 269.604C16.3567 269.784 16.209 270.153 16.209 270.424C16.209 270.767 16.0014 270.916 15.5252 270.916C15.0996 270.916 14.8414 271.071 14.8414 271.327C14.8414 271.655 15.2517 271.737 16.8928 271.737C18.9127 271.737 18.9441 271.726 18.9441 271.035C18.9441 269.916 18.4625 269.275 17.6217 269.275C17.2057 269.275 16.7177 269.423 16.5372 269.604ZM16.95 270.267C16.5435 270.673 16.7867 270.916 17.5993 270.916C18.1518 270.916 18.4039 270.799 18.3301 270.575C18.2024 270.187 17.2437 269.973 16.95 270.267ZM16.5372 272.612C15.9858 273.164 16.16 274.154 16.8928 274.634C17.5262 275.049 17.6269 275.049 18.2604 274.634C19.4715 273.841 19.0185 272.284 17.5766 272.284C17.1854 272.284 16.7177 272.432 16.5372 272.612ZM16.9119 273.347C16.8296 273.48 16.9453 273.742 17.1693 273.928C17.4926 274.196 17.6605 274.196 17.9838 273.928C18.4794 273.516 18.2759 273.105 17.5766 273.105C17.2935 273.105 16.9943 273.214 16.9119 273.347ZM14.8414 275.691C14.8414 275.959 15.0912 276.113 15.5252 276.113C16.0241 276.113 16.209 276.259 16.209 276.654C16.209 276.951 16.5167 277.396 16.8928 277.643C17.5273 278.058 17.6269 278.058 18.2765 277.632C18.8271 277.271 18.9584 276.988 18.8919 276.301L18.8074 275.429L16.8244 275.349C15.1844 275.283 14.8414 275.342 14.8414 275.691ZM16.756 276.353C16.756 276.485 16.9407 276.746 17.1663 276.934C17.4937 277.205 17.6594 277.205 17.9868 276.934C18.6222 276.406 18.4756 276.113 17.5766 276.113C17.1253 276.113 16.756 276.221 16.756 276.353ZM16.8244 278.617C14.5581 279.349 14.5184 279.928 16.6877 280.611C17.5528 280.884 18.4143 281.166 18.6022 281.238C18.7904 281.31 18.9441 281.185 18.9441 280.961C18.9441 280.737 18.698 280.489 18.3971 280.41C18.0771 280.326 17.8501 280.037 17.8501 279.713C17.8501 279.399 18.0872 279.084 18.3971 278.985C18.698 278.89 18.9441 278.635 18.9441 278.42C18.9441 277.937 18.9261 277.939 16.8244 278.617ZM16.3458 279.669C16.2528 279.819 16.4303 279.942 16.7399 279.942C17.0495 279.942 17.3031 279.819 17.3031 279.669C17.3031 279.518 17.1258 279.395 16.9089 279.395C16.692 279.395 16.4388 279.518 16.3458 279.669Z" fill="white"/>
</g>
<defs>
<linearGradient id="paint0_linear_443_31" x1="129.246" y1="0.158447" x2="129.246" y2="257" gradientUnits="userSpaceOnUse">
<stop stop-color="#EA2B36"/>
<stop offset="1" stop-color="#E75D6D"/>
</linearGradient>
<clipPath id="clip0_443_31">
<rect width="140.292" height="213.887" fill="white" transform="translate(72 20)"/>
</clipPath>
</defs>
</svg>
